<?xml version="1.0" encoding="UTF-8" standalone="no"?>
<!DOCTYPE svg PUBLIC "-//W3C//DTD SVG 1.1//EN"
 "http://www.w3.org/Graphics/SVG/1.1/DTD/svg11.dtd">
<!-- Generated by graphviz version 2.43.0 (0)
 -->
<!-- Title: graph Pages: 1 -->
<svg width="766pt" height="44pt"
 viewBox="0.00 0.00 766.00 44.00" xmlns="http://www.w3.org/2000/svg" xmlns:xlink="http://www.w3.org/1999/xlink">
<g id="graph0" class="graph" transform="scale(1 1) rotate(0) translate(4 40)">
<title>graph</title>
<polygon fill="white" stroke="transparent" points="-4,4 -4,-40 762,-40 762,4 -4,4"/>
<!-- N0 -->
<g id="node1" class="node">
<title>N0</title>
<polygon fill="#ffd700" stroke="#ffd700" points="76,-36 0,-36 0,0 76,0 76,-36"/>
<text text-anchor="middle" x="38" y="-14.9" font-family="Times,serif" font-size="12.00" fill="#000000">Analyzing</text>
</g>
<!-- N1 -->
<g id="node2" class="node">
<title>N1</title>
<polygon fill="#ffd700" stroke="#ffd700" points="148,-36 94,-36 94,0 148,0 148,-36"/>
<text text-anchor="middle" x="121" y="-14.9" font-family="Times,serif" font-size="12.00" fill="#000000">Done</text>
</g>
<!-- N2 -->
<g id="node3" class="node">
<title>N2</title>
<polygon fill="#ffd700" stroke="#ffd700" points="243.5,-36 166.5,-36 166.5,0 243.5,0 243.5,-36"/>
<text text-anchor="middle" x="205" y="-14.9" font-family="Times,serif" font-size="12.00" fill="#000000">Exporting</text>
</g>
<!-- N3 -->
<g id="node4" class="node">
<title>N3</title>
<polygon fill="#ffd700" stroke="#ffd700" points="316,-36 262,-36 262,0 316,0 316,-36"/>
<text text-anchor="middle" x="289" y="-14.9" font-family="Times,serif" font-size="12.00" fill="#000000">Idle</text>
</g>
<!-- N4 -->
<g id="node5" class="node">
<title>N4</title>
<polygon fill="#ffd700" stroke="#ffd700" points="409.5,-36 334.5,-36 334.5,0 409.5,0 409.5,-36"/>
<text text-anchor="middle" x="372" y="-14.9" font-family="Times,serif" font-size="12.00" fill="#000000">Receiving</text>
</g>
<!-- N5 -->
<g id="node6" class="node">
<title>N5</title>
<polygon fill="#ffd700" stroke="#ffd700" points="492.5,-36 427.5,-36 427.5,0 492.5,0 492.5,-36"/>
<text text-anchor="middle" x="460" y="-14.9" font-family="Times,serif" font-size="12.00" fill="#000000">Request</text>
</g>
<!-- N6 -->
<g id="node7" class="node">
<title>N6</title>
<polygon fill="#ffd700" stroke="#ffd700" points="597.5,-36 510.5,-36 510.5,0 597.5,0 597.5,-36"/>
<text text-anchor="middle" x="554" y="-14.9" font-family="Times,serif" font-size="12.00" fill="#000000">Responding</text>
</g>
<!-- N7 -->
<g id="node8" class="node">
<title>N7</title>
<polygon fill="#ffd700" stroke="#ffd700" points="678,-36 616,-36 616,0 678,0 678,-36"/>
<text text-anchor="middle" x="647" y="-14.9" font-family="Times,serif" font-size="12.00" fill="#000000">Result0</text>
</g>
<!-- N8 -->
<g id="node9" class="node">
<title>N8</title>
<polygon fill="#ffd700" stroke="#ffd700" points="758,-36 696,-36 696,0 758,0 758,-36"/>
<text text-anchor="middle" x="727" y="-14.9" font-family="Times,serif" font-size="12.00" fill="#000000">Result1</text>
</g>
</g>
</svg>
